<svg width="262" height="54" viewBox="0 0 262 54" fill="none" xmlns="http://www.w3.org/2000/svg">
<path d="M51.8416 43C51.3296 43 50.8816 42.824 50.4976 42.472C50.1456 42.088 49.9696 41.64 49.9696 41.128V7.384C49.9696 6.84 50.1456 6.392 50.4976 6.04C50.8496 5.688 51.2976 5.512 51.8416 5.512H74.3536C74.8976 5.512 75.3456 5.688 75.6976 6.04C76.0496 6.36 76.2256 6.792 76.2256 7.336C76.2256 7.816 76.0496 8.232 75.6976 8.584C75.3456 8.936 74.8976 9.112 74.3536 9.112H53.7136V22.36H68.7376C69.2816 22.36 69.7296 22.536 70.0816 22.888C70.4336 23.24 70.6096 23.672 70.6096 24.184C70.6096 24.696 70.4336 25.128 70.0816 25.48C69.7296 25.832 69.2816 26.008 68.7376 26.008H53.7136V41.128C53.7136 41.64 53.5376 42.088 53.1856 42.472C52.8336 42.824 52.3856 43 51.8416 43ZM93.3136 43.24C90.8496 43.24 88.6416 42.664 86.6896 41.512C84.7376 40.328 83.1856 38.728 82.0336 36.712C80.9136 34.696 80.3536 32.424 80.3536 29.896C80.3536 27.336 80.9296 25.048 82.0816 23.032C83.2656 21.016 84.8656 19.432 86.8816 18.28C88.8976 17.096 91.1696 16.504 93.6976 16.504C96.2256 16.504 98.4816 17.096 100.466 18.28C102.482 19.432 104.066 21.016 105.218 23.032C106.402 25.048 107.01 27.336 107.042 29.896V41.176C107.042 41.72 106.866 42.168 106.514 42.52C106.162 42.84 105.714 43 105.17 43C104.626 43 104.178 42.84 103.826 42.52C103.474 42.168 103.298 41.72 103.298 41.176V38.248C102.21 39.784 100.802 41 99.0736 41.896C97.3456 42.792 95.4256 43.24 93.3136 43.24ZM93.6976 39.88C95.5536 39.88 97.2016 39.448 98.6416 38.584C100.114 37.72 101.266 36.536 102.098 35.032C102.962 33.496 103.394 31.784 103.394 29.896C103.394 27.976 102.962 26.264 102.098 24.76C101.266 23.256 100.114 22.072 98.6416 21.208C97.2016 20.312 95.5536 19.864 93.6976 19.864C91.8736 19.864 90.2256 20.312 88.7536 21.208C87.2816 22.072 86.1136 23.256 85.2496 24.76C84.3856 26.264 83.9536 27.976 83.9536 29.896C83.9536 31.784 84.3856 33.496 85.2496 35.032C86.1136 36.536 87.2816 37.72 88.7536 38.584C90.2256 39.448 91.8736 39.88 93.6976 39.88ZM122.678 43.24C120.79 43.24 118.918 42.92 117.062 42.28C115.206 41.64 113.702 40.68 112.55 39.4C112.198 39.016 112.054 38.584 112.118 38.104C112.182 37.624 112.422 37.208 112.838 36.856C113.286 36.536 113.75 36.408 114.23 36.472C114.71 36.536 115.11 36.744 115.43 37.096C116.198 37.992 117.206 38.68 118.454 39.16C119.734 39.64 121.142 39.88 122.678 39.88C125.046 39.88 126.758 39.48 127.814 38.68C128.87 37.848 129.414 36.856 129.446 35.704C129.446 34.552 128.902 33.608 127.814 32.872C126.726 32.104 124.934 31.512 122.438 31.096C119.206 30.584 116.838 29.688 115.334 28.408C113.83 27.128 113.078 25.608 113.078 23.848C113.078 22.216 113.51 20.856 114.374 19.768C115.238 18.68 116.39 17.864 117.83 17.32C119.27 16.776 120.854 16.504 122.582 16.504C124.726 16.504 126.566 16.872 128.102 17.608C129.67 18.344 130.934 19.336 131.894 20.584C132.214 21 132.342 21.432 132.278 21.88C132.214 22.328 131.958 22.696 131.51 22.984C131.126 23.208 130.678 23.288 130.166 23.224C129.686 23.128 129.27 22.888 128.918 22.504C127.35 20.712 125.206 19.816 122.486 19.816C120.726 19.816 119.318 20.184 118.262 20.92C117.206 21.624 116.678 22.52 116.678 23.608C116.678 24.696 117.142 25.592 118.07 26.296C119.03 27 120.822 27.576 123.446 28.024C125.846 28.408 127.734 28.984 129.11 29.752C130.518 30.488 131.51 31.368 132.086 32.392C132.694 33.384 132.998 34.472 132.998 35.656C132.998 37.16 132.55 38.488 131.654 39.64C130.79 40.76 129.574 41.64 128.006 42.28C126.47 42.92 124.694 43.24 122.678 43.24ZM148.937 43C147.241 43 145.721 42.6 144.377 41.8C143.065 41 142.025 39.912 141.257 38.536C140.489 37.128 140.105 35.528 140.105 33.736V20.92H136.985C136.505 20.92 136.105 20.776 135.785 20.488C135.465 20.168 135.305 19.784 135.305 19.336C135.305 18.856 135.465 18.472 135.785 18.184C136.105 17.864 136.505 17.704 136.985 17.704H140.105V10.264C140.105 9.72 140.265 9.272 140.585 8.92C140.937 8.568 141.385 8.392 141.929 8.392C142.473 8.392 142.921 8.568 143.273 8.92C143.625 9.272 143.801 9.72 143.801 10.264V17.704H149.225C149.705 17.704 150.105 17.864 150.425 18.184C150.745 18.472 150.905 18.856 150.905 19.336C150.905 19.784 150.745 20.168 150.425 20.488C150.105 20.776 149.705 20.92 149.225 20.92H143.801V33.736C143.801 35.368 144.281 36.712 145.241 37.768C146.201 38.792 147.433 39.304 148.937 39.304H150.233C150.745 39.304 151.161 39.48 151.481 39.832C151.801 40.184 151.961 40.632 151.961 41.176C151.961 41.72 151.769 42.168 151.385 42.52C151.001 42.84 150.521 43 149.945 43H148.937ZM181.976 43C181.464 43 181.016 42.824 180.632 42.472C180.28 42.088 180.104 41.64 180.104 41.128V8.92H168.728C168.216 8.92 167.8 8.76 167.48 8.44C167.16 8.12 167 7.72 167 7.24C167 6.728 167.16 6.312 167.48 5.992C167.8 5.672 168.216 5.512 168.728 5.512H195.272C195.784 5.512 196.2 5.672 196.52 5.992C196.84 6.312 197 6.728 197 7.24C197 7.72 196.84 8.12 196.52 8.44C196.2 8.76 195.784 8.92 195.272 8.92H183.848V41.128C183.848 41.64 183.672 42.088 183.32 42.472C182.968 42.824 182.52 43 181.976 43ZM205.682 43.24C203.218 43.24 201.01 42.664 199.058 41.512C197.106 40.328 195.554 38.728 194.402 36.712C193.282 34.696 192.722 32.424 192.722 29.896C192.722 27.336 193.298 25.048 194.45 23.032C195.634 21.016 197.234 19.432 199.25 18.28C201.266 17.096 203.538 16.504 206.066 16.504C208.594 16.504 210.85 17.096 212.834 18.28C214.85 19.432 216.434 21.016 217.586 23.032C218.77 25.048 219.378 27.336 219.41 29.896V41.176C219.41 41.72 219.234 42.168 218.882 42.52C218.53 42.84 218.082 43 217.538 43C216.994 43 216.546 42.84 216.194 42.52C215.842 42.168 215.666 41.72 215.666 41.176V38.248C214.578 39.784 213.17 41 211.442 41.896C209.714 42.792 207.794 43.24 205.682 43.24ZM206.066 39.88C207.922 39.88 209.57 39.448 211.01 38.584C212.482 37.72 213.634 36.536 214.466 35.032C215.33 33.496 215.762 31.784 215.762 29.896C215.762 27.976 215.33 26.264 214.466 24.76C213.634 23.256 212.482 22.072 211.01 21.208C209.57 20.312 207.922 19.864 206.066 19.864C204.242 19.864 202.594 20.312 201.122 21.208C199.65 22.072 198.482 23.256 197.618 24.76C196.754 26.264 196.322 27.976 196.322 29.896C196.322 31.784 196.754 33.496 197.618 35.032C198.482 36.536 199.65 37.72 201.122 38.584C202.594 39.448 204.242 39.88 206.066 39.88ZM231.543 43C229.623 43 228.039 42.232 226.791 40.696C225.543 39.128 224.919 37.128 224.919 34.696V7.336C224.919 6.792 225.079 6.36 225.399 6.04C225.751 5.688 226.199 5.512 226.743 5.512C227.287 5.512 227.719 5.688 228.039 6.04C228.391 6.36 228.567 6.792 228.567 7.336V34.696C228.567 36.072 228.839 37.192 229.383 38.056C229.959 38.92 230.679 39.352 231.543 39.352H232.743C233.223 39.352 233.607 39.528 233.895 39.88C234.183 40.2 234.327 40.632 234.327 41.176C234.327 41.72 234.119 42.168 233.703 42.52C233.319 42.84 232.807 43 232.167 43H231.543ZM240.53 43C239.986 43 239.538 42.84 239.186 42.52C238.866 42.168 238.706 41.72 238.706 41.176V7.336C238.706 6.792 238.866 6.36 239.186 6.04C239.538 5.688 239.986 5.512 240.53 5.512C241.074 5.512 241.506 5.688 241.826 6.04C242.178 6.36 242.354 6.792 242.354 7.336V29.176L255.89 16.936C256.722 16.2 257.506 16.232 258.242 17.032C258.594 17.416 258.754 17.832 258.722 18.28C258.722 18.696 258.53 19.064 258.146 19.384L248.546 28.072L258.53 40.36C259.234 41.224 259.154 42.024 258.29 42.76C257.874 43.112 257.442 43.256 256.994 43.192C256.546 43.16 256.162 42.936 255.842 42.52L245.954 30.376L242.354 33.688V41.176C242.354 41.72 242.178 42.168 241.826 42.52C241.506 42.84 241.074 43 240.53 43Z" fill="black"/>
<path fill-rule="evenodd" clip-rule="evenodd" d="M11.2593 16.2593V43L0 31.7407V5H1.14441e-05H26.7408L38 16.2593H11.2593H11.2593Z" fill="url(#paint0_linear)"/>
<path fill-rule="evenodd" clip-rule="evenodd" d="M26.7407 31.7407L26.7407 5L38 16.2593V43H38H11.2592L-1.14441e-05 31.7407L26.7407 31.7407H26.7407Z" fill="#0C57AA"/>
<defs>
<linearGradient id="paint0_linear" x1="26.7407" y1="5" x2="11.2593" y2="43" gradientUnits="userSpaceOnUse">
<stop stop-color="#00F0FF"/>
<stop offset="0.449727" stop-color="#39B4B4"/>
<stop offset="1" stop-color="white"/>
</linearGradient>
</defs>
</svg>
